<?xml version="1.0" encoding="UTF-8" standalone="no"?>
<svg width="60px" height="60px" viewBox="0 0 60 60" version="1.1" xmlns="http://www.w3.org/2000/svg" xmlns:xlink="http://www.w3.org/1999/xlink" xmlns:sketch="http://www.bohemiancoding.com/sketch/ns">
    <!-- Generator: Sketch 3.2.2 (9983) - http://www.bohemiancoding.com/sketch -->
    <title>Likehand</title>
    <desc>Created with Sketch.</desc>
    <defs></defs>
    <g id="stroked" stroke="none" stroke-width="1" fill="none" fill-rule="evenodd" sketch:type="MSPage">
        <g id="Interaction" sketch:type="MSLayerGroup" transform="translate(-482.000000, -1084.000000)" stroke="#ffffff" stroke-width="2" stroke-linecap="round" stroke-linejoin="round">
            <g id="Likehand" transform="translate(488.000000, 1091.000000)" sketch:type="MSShapeGroup">
                <path d="M30.0330537,31.2868755 C30.0330537,31.2868755 21.5659504,23.9340496 20.0659504,20.4340496 C18.5659504,16.9340496 13.0709134,16.9306358 12.0659501,14.4340496 C11.0624845,11.9374635 16.0659502,11.7864256 17.5659502,11.7864256 C19.0659502,11.7864256 20.0659507,12.4340496 21.5659507,13.4340496 C23.0659507,14.4340496 25.9907348,16.1808571 26.5538737,16.6287013 L27.2323363,1.15291422 C27.2323363,1.15291422 27.9212828,-1.06595036 29.6631194,-1.06595036 C31.4034582,-1.06595036 32.1807696,0.534947351 32.1807696,0.982791579 C32.1807696,1.43208985 32.2751253,8.0440509 32.2751253,8.0440509 L32.7424108,4.06143616 C32.7424108,4.06143616 33.5047451,2.41400918 35.5805709,2.41400918 C37.6563968,2.41400918 37.8091632,4.52818291 37.8091632,4.52818291 L38.4367036,8.58495367 L38.3708044,5.81791612 C38.3708044,5.81937016 38.7587112,4.14431642 40.9004363,4.14431642 C43.0436591,4.14431642 43.4375568,6.12908062 43.4375568,7.28068006 C43.4375568,8.43373354 44.0659504,11.786426 44.0659504,11.786426 C44.0659504,11.786426 44.4620472,7.79250172 46.3386776,7.79250172 C48.2138104,7.79250172 49.0659504,9.07351101 49.0659504,10.610431 L49.0659504,24.2740421 C49.0659504,24.2740421 48.0131172,28.6853077 46.3386776,30.7340496 L46.3386776,39.9340496 L30.0330537,39.9340496 L30.0330537,31.2868755 Z" id="Imported-Layers-3" transform="translate(30.500000, 19.434050) rotate(-270.000000) translate(-30.500000, -19.434050) "></path>
                <rect id="Rectangle-2524" x="0" y="15" width="10" height="24"></rect>
                <circle id="Oval-1852" cx="5" cy="19" r="1"></circle>
            </g>
        </g>
    </g>
</svg>