<?xml version="1.0" encoding="iso-8859-1"?>
<!DOCTYPE svg PUBLIC "-//W3C//DTD SVG 1.1//EN" "http://www.w3.org/Graphics/SVG/1.1/DTD/svg11.dtd">
<svg 
 version="1.1" xmlns="http://www.w3.org/2000/svg" xmlns:xlink="http://www.w3.org/1999/xlink" x="0px" y="0px" width="512px"
	 height="512px" viewBox="0 0 512 512" style="enable-background:new 0 0 512 512;" xml:space="preserve"
><g id="5151e0c8492e5103c096af88a5061177"><g></g><path style="display: inline;" d="M405.042,0.5H106.958c-35.131,0-63.875,28.744-63.875,63.875v85.167v212.917v85.167
		c0,35.131,28.744,63.875,63.875,63.875h298.083c35.131,0,63.875-28.744,63.875-63.875v-85.167V149.542V64.375
		C468.917,29.244,440.173,0.5,405.042,0.5z M243.383,120.104c0-9.253,5.679-16.821,12.617-16.821
		c6.937,0,12.617,7.568,12.617,16.821v67.289c0,9.249-5.681,16.817-12.617,16.817c-6.938,0-12.617-7.568-12.617-16.817V120.104z
		 M222.357,127.456v27.38c-24.901,12.409-42.055,38.125-42.055,67.784c0,41.739,33.957,75.698,75.698,75.698
		c41.743,0,75.697-33.959,75.697-75.698c0-29.659-17.153-55.375-42.055-67.784v-27.38c39.198,13.86,67.285,51.225,67.285,95.164
		c0,55.741-45.187,100.931-100.928,100.931c-55.741,0-100.93-45.19-100.93-100.931C155.07,178.681,183.161,141.316,222.357,127.456z
		 M447.625,447.625c0,23.479-19.104,42.583-42.583,42.583H106.958c-23.479,0-42.583-19.104-42.583-42.583V409.87
		c11.328,10.192,26.24,16.463,42.583,16.463h298.083c16.343,0,31.255-6.271,42.583-16.463V447.625z"></path></g></svg>